<svg width="87" height="45" viewBox="0 0 87 45" fill="none" xmlns="http://www.w3.org/2000/svg">
<g clip-path="url(#clip0_27_11)">
<path d="M63.162 6.75912C62.7021 3.36718 60.8081 -0.211683 54.6852 0.0100808C48.5614 0.231844 45.4626 6.11796 46.3762 9.31304C47.2897 12.5104 63.162 6.75912 63.162 6.75912Z" fill="url(#paint0_radial_27_11)"/>
<path d="M54.6839 0.0104602C58.8019 -0.138531 61.0022 1.43373 62.1447 3.50965C57.7661 -0.249221 51.8988 0.262483 48.0729 3.31623C49.5097 1.52719 51.748 0.116937 54.6839 0.0104602Z" fill="url(#paint1_radial_27_11)"/>
<path d="M42.698 8.70041C40.1005 7.83406 39.2412 5.25683 31.7581 4.35065C24.2735 3.44293 22.7415 7.47634 22.4333 11.0911C22.125 14.7051 21.7557 19.4168 27.0249 20.2058" fill="url(#paint2_radial_27_11)"/>
<path d="M22.3919 15.5679C22.1843 14.109 22.313 12.5149 22.4341 11.0901C22.7427 7.47525 24.2747 3.44214 31.7591 4.34949C34.3501 4.66318 36.1474 5.17756 37.4972 5.75323C31.1175 5.04313 24.4395 9.38379 22.3919 15.5679Z" fill="url(#paint3_radial_27_11)"/>
<path d="M23.6264 26.2726L43.3234 33.447C40.0174 37.0101 31.7233 41.1637 25.182 38.459C18.6399 35.7534 22.3938 30.1229 23.6264 26.2726Z" fill="url(#paint4_linear_27_11)"/>
<path d="M22.5049 29.2255C22.5671 30.9402 22.4206 32.8407 23.7607 34.0349C28.3183 38.2399 36.2148 37.8312 41.624 34.9821C37.6872 38.0522 30.792 40.7777 25.182 38.4574C20.1808 36.3892 21.198 32.6105 22.5049 29.2255Z" fill="url(#paint5_radial_27_11)"/>
<path d="M63.7574 31.1942C63.8217 37.0194 65.4063 40.8786 60.9503 43.9186C56.4943 46.9597 52.5291 43.0932 53.8353 38.3006C55.1422 33.5057 57.8368 33.3613 59.2524 31.8997C61.5594 29.5147 63.735 29.1681 63.7574 31.1942Z" fill="url(#paint6_radial_27_11)"/>
<path d="M53.8368 38.3028C54.7669 34.8902 56.398 33.8358 57.7737 32.9824C56.6973 34.6688 54.5747 39.0256 58.9015 40.715C60.6153 41.5408 62.4412 41.3397 63.759 40.2945C63.3641 41.6431 62.5433 42.8335 60.9526 43.9197C56.4962 46.9627 52.5306 43.0951 53.8368 38.3028Z" fill="url(#paint7_radial_27_11)"/>
<path d="M73.4765 11.144C74.0849 11.5002 74.6878 11.8249 75.2927 12.0953C77.814 13.2233 80.0855 14.8185 82.1546 16.6244C83.6564 17.9346 86.107 19.6566 86.8225 21.541C86.8592 21.6348 86.59 22.3533 86.6024 22.4889C86.65 23.073 87.1207 23.1971 86.9718 23.8374C86.8314 24.4315 86.0482 24.9148 85.6096 25.2695C84.1264 26.4591 82.7479 27.4415 81.1077 28.3937C80.0886 28.9854 79.0169 29.5147 77.9335 30.0222C74.0667 24.0872 71.0457 17.5286 73.4765 11.144Z" fill="url(#paint8_radial_27_11)"/>
<path d="M25.2327 15.9928C30.8608 12.7622 36.4031 7.32429 52.4684 5.19594C63.6675 3.71257 68.8036 8.41432 73.4749 11.1463C71.0445 17.5309 74.0647 24.0895 77.9324 30.0249C76.738 30.586 75.5294 31.1191 74.3533 31.6771C69.516 33.9706 59.5032 38.2751 49.0417 35.7546C38.5786 33.2344 27.2253 29.5453 23.8326 28.594C22.8073 28.3059 21.8238 28.3465 20.8507 28.5813C20.4287 25.0577 20.0717 21.6076 19.1238 18.0794C21.1875 17.997 22.9999 17.2755 25.2327 15.9928Z" fill="url(#paint9_radial_27_11)"/>
<path d="M14.8296 17.678C16.2068 18.0495 17.931 18.3421 19.4328 18.2065C20.3808 21.7359 20.4291 25.055 20.8511 28.5786C18.6075 29.1179 16.4184 30.7078 13.8778 31.7989C10.2379 33.3646 1.68162 34.578 0.171709 26.4422C-1.33821 18.3076 7.40453 15.6737 14.8296 17.678Z" fill="url(#paint10_radial_27_11)"/>
<path d="M70.3244 15.8472C62.1363 18.1207 53.8728 13.648 45.8216 17.4643C38.8254 20.6179 29.8251 20.8301 22.7242 17.2023C23.5294 16.8882 24.3637 16.4922 25.2331 15.9928C30.8613 12.7622 36.4035 7.32428 52.4692 5.19593C64.9048 3.54864 69.8677 9.52884 75.0162 11.9682C73.6676 13.8441 71.8846 15.3145 70.3244 15.8472Z" fill="url(#paint11_linear_27_11)"/>
<path d="M77.7076 13.3654C76.8622 14.4232 74.962 17.6179 74.9454 18.6443C74.9257 19.7765 75.5337 24.9294 75.7166 25.3017C75.8667 25.6023 77.7266 28.5258 78.7523 29.6292C77.2938 30.3382 75.7994 30.9927 74.3529 31.6787C74.3243 31.6921 74.2925 31.7078 74.2632 31.7212C73.239 30.8939 70.3901 28.9069 69.9608 28.1746C69.4298 27.2703 67.853 23.0351 67.4388 20.423C67.0296 17.8366 66.1698 14.4382 72.6964 10.6794C73.5751 11.2217 74.4287 11.7135 75.2904 12.0988C76.1231 12.4718 76.9276 12.8993 77.7076 13.3654Z" fill="url(#paint12_radial_27_11)"/>
<path d="M41.6267 33.8331C41.7528 32.1176 41.0775 26.7824 41.6456 25.2205C42.1577 23.8175 43.2816 20.6903 41.6719 14.5194C41.2036 12.7185 40.7398 10.4833 39.6627 8.17302C41.7609 7.41735 44.1453 6.72144 46.916 6.13812C47.1612 6.82944 48.9624 9.27951 50.955 11.8039C53.46 14.9771 56.0776 17.069 56.5387 17.8316C56.5387 17.8316 57.3443 19.4459 54.9638 22.1633C52.6563 24.7973 47.7994 28.3454 47.2572 35.3149C45.376 34.8442 43.4835 34.3417 41.6267 33.8331Z" fill="url(#paint13_radial_27_11)"/>
<path d="M17.9295 29.7467C17.9001 27.8106 17.4661 22.9356 16.4474 18.0089C19.1722 18.6015 20.8318 17.855 22.7544 17.1878C22.901 17.8584 23.7334 19.9052 23.9929 22.219C24.2311 24.3462 23.9229 26.6922 23.5609 28.5314C21.6142 28.0921 19.8134 28.7861 17.9295 29.7467Z" fill="url(#paint14_radial_27_11)"/>
<path d="M11.9218 17.138C8.18325 17.6983 5.71566 21.3706 5.50371 24.0762C5.07556 27.9305 8.8133 30.8582 12.9096 32.165C8.90535 33.4987 1.55905 33.9261 0.171703 26.4432C-1.14409 19.3552 5.32348 16.4443 11.9218 17.138Z" fill="url(#paint15_radial_27_11)"/>
<path d="M17.048 18.0534C18.8283 18.2449 20.2269 17.8599 22.2307 17.3877C23.328 21.073 23.6092 24.8407 22.8933 28.4314C21.176 28.5257 20.194 28.7306 18.5038 29.5651C18.5998 27.0369 18.4497 22.3381 17.048 18.0534Z" fill="url(#paint16_linear_27_11)"/>
<path d="M77.4176 13.193C75.5472 15.642 74.4465 18.0005 74.5683 19.3544C74.7064 20.9002 74.8847 24.3909 75.2483 25.5276C75.5445 26.4514 77.3151 28.3657 78.4522 29.7728C77.1666 30.3876 75.8605 30.9697 74.5834 31.5695C73.2332 30.4569 71.1107 28.6177 70.5828 27.6219C69.7957 26.1316 67.1905 18.9595 68.1218 16.1513C68.702 14.4029 70.9189 12.2102 72.855 10.7744C73.6784 11.278 74.4813 11.7326 75.2904 12.0961C76.0214 12.4232 76.728 12.7932 77.4176 13.193Z" fill="url(#paint17_linear_27_11)"/>
<path d="M43.2937 24.4188C44.5011 21.1112 42.985 13.5079 39.9505 8.06999C41.9052 7.37867 44.1237 6.60845 46.6384 6.19864C47.1535 7.46293 48.0968 9.43233 49.6099 11.404C52.1312 14.6902 55.0458 16.5125 55.3594 18.5627C55.6727 20.6122 52.97 22.6662 50.1343 26.1581C48.2067 28.5334 47.0804 32.3941 46.7273 35.182C45.2 34.9595 43.6885 34.46 42.227 33.997C42.2335 31.2532 42.3979 26.8708 43.2937 24.4188Z" fill="url(#paint18_linear_27_11)"/>
<path d="M65.5908 21.5656C63.8774 17.0415 61.2539 12.5967 55.5483 14.781C49.8423 16.966 51.6021 22.0065 53.2497 24.3294C54.3118 25.8259 56.1118 26.5808 57.8445 27.017C58.3118 27.135 63.3034 27.7516 63.3104 27.8566C63.1711 25.5662 64.058 23.2379 65.5908 21.5656Z" fill="url(#paint19_radial_27_11)"/>
<path d="M55.5463 14.7825C60.0321 13.0651 62.6111 15.4451 64.343 18.7402C63.0326 17.8677 61.4511 17.3249 60.005 17.1668C57.8789 16.8324 55.8882 18.6486 55.5061 20.2397C54.5268 23.0663 55.6496 25.1732 57.4121 26.7945C55.6287 26.1775 53.9583 25.3326 53.2474 24.3302C51.6001 22.008 49.8403 16.9676 55.5463 14.7825Z" fill="url(#paint20_radial_27_11)"/>
<path d="M81.2969 18.0764C81.4091 19.564 80.2797 20.8601 78.7775 20.9712C77.2738 21.0811 75.9661 19.965 75.8543 18.4755C75.7425 16.9859 76.8704 15.691 78.3749 15.5822C79.8771 15.4696 81.1856 16.5865 81.2969 18.0764Z" fill="url(#paint21_radial_27_11)"/>
<path d="M80.7864 18.1147C80.8773 19.3242 79.9622 20.3752 78.7408 20.466C77.5193 20.556 76.4569 19.6479 76.3648 18.4383C76.2736 17.2307 77.1921 16.177 78.4112 16.0866C79.6338 15.9978 80.6967 16.9067 80.7864 18.1147Z" fill="url(#paint22_radial_27_11)"/>
<path d="M80.2604 18.3521C80.3223 19.184 79.691 19.9075 78.8525 19.968C78.0125 20.0301 77.283 19.4077 77.2215 18.5754C77.1604 17.7454 77.7881 17.0211 78.6274 16.9599C79.4667 16.8978 80.1977 17.5229 80.2604 18.3521Z" fill="url(#paint23_linear_27_11)"/>
<path opacity="0.58" d="M78.3071 17.7048C78.7693 17.4084 79.3874 17.5413 79.6852 18.0001C79.9826 18.4586 79.8496 19.0718 79.3851 19.3655C78.924 19.6628 78.3056 19.5299 78.0078 19.0695C77.7088 18.6102 77.8438 17.9993 78.3071 17.7048Z" fill="black"/>
<path d="M79.5525 18.0916C79.5692 18.2809 79.4253 18.4471 79.2362 18.4647C79.0428 18.4789 78.8768 18.3383 78.8602 18.1502C78.8447 17.9599 78.9878 17.7937 79.1785 17.778C79.3696 17.7615 79.5363 17.9036 79.5525 18.0916Z" fill="white"/>
<path d="M86.6033 22.4923C86.6327 22.87 86.8392 23.0565 86.9425 23.3147C84.1303 24.7709 82.0754 24.2412 82.0754 24.2412C84.3991 23.8723 85.7907 23.3392 86.6261 22.3518C86.6114 22.4134 86.601 22.4651 86.6033 22.4923Z" fill="url(#paint24_linear_27_11)"/>
<path d="M75.1358 26.547C77.444 26.547 79.3152 24.694 79.3152 22.4082C79.3152 20.1224 77.444 18.2693 75.1358 18.2693C72.8276 18.2693 70.9564 20.1224 70.9564 22.4082C70.9564 24.694 72.8276 26.547 75.1358 26.547Z" fill="url(#paint25_radial_27_11)"/>
<path d="M56.5248 26.4834C56.3616 25.2776 56.3225 24.3523 56.8729 23.3526C58.4915 20.9439 63.3907 19.4367 65.5412 21.7811C65.0817 22.3426 64.6025 22.9118 64.2579 23.5491C64.0332 23.9608 64.0185 24.6304 63.6839 24.9505C63.0345 25.5695 61.7783 24.9674 61.0194 24.9207C61.3714 25.0069 61.641 25.211 61.9659 25.329C62.2803 25.4458 63.5756 25.7936 63.376 26.383C63.2001 26.8978 61.4963 26.4332 61.0755 26.4175C61.5037 26.4401 62.2571 26.6132 62.5472 26.951C63.113 27.6071 62.4466 27.7799 61.8204 27.709C60.0247 27.5083 58.2304 27.1138 56.5248 26.4834Z" fill="url(#paint26_linear_27_11)"/>
</g>
<defs>
<radialGradient id="paint0_radial_27_11" cx="0" cy="0" r="1" gradientUnits="userSpaceOnUse" gradientTransform="translate(58.5871 -1.02592) rotate(175.017) scale(8.58204 8.4999)">
<stop stop-color="#FAA71C"/>
<stop offset="1" stop-color="#EA5124"/>
</radialGradient>
<radialGradient id="paint1_radial_27_11" cx="0" cy="0" r="1" gradientUnits="userSpaceOnUse" gradientTransform="translate(55.216 1.89325) rotate(175.017) scale(4.03102 3.99244)">
<stop stop-color="#8C2A1C"/>
<stop offset="1" stop-color="#270E11"/>
</radialGradient>
<radialGradient id="paint2_radial_27_11" cx="0" cy="0" r="1" gradientUnits="userSpaceOnUse" gradientTransform="translate(20.3546 9.34762) rotate(175.017) scale(13.0398 12.915)">
<stop stop-color="#FAA71C"/>
<stop offset="1" stop-color="#EA5124"/>
</radialGradient>
<radialGradient id="paint3_radial_27_11" cx="0" cy="0" r="1" gradientUnits="userSpaceOnUse" gradientTransform="translate(30.0789 9.15818) rotate(175.017) scale(5.3525 5.30127)">
<stop stop-color="#8C2A1C"/>
<stop offset="1" stop-color="#270E11"/>
</radialGradient>
<linearGradient id="paint4_linear_27_11" x1="32.9918" y1="30.7074" x2="29.4894" y2="36.9603" gradientUnits="userSpaceOnUse">
<stop stop-color="#FAA71C"/>
<stop offset="1" stop-color="#EA5124"/>
</linearGradient>
<radialGradient id="paint5_radial_27_11" cx="0" cy="0" r="1" gradientUnits="userSpaceOnUse" gradientTransform="translate(28.0749 33.5333) rotate(175.017) scale(5.3667 5.31534)">
<stop stop-color="#8C2A1C"/>
<stop offset="1" stop-color="#270E11"/>
</radialGradient>
<radialGradient id="paint6_radial_27_11" cx="0" cy="0" r="1" gradientUnits="userSpaceOnUse" gradientTransform="translate(63.5583 35.2169) rotate(175.017) scale(7.98034 7.90397)">
<stop stop-color="#FAA71C"/>
<stop offset="1" stop-color="#EA5124"/>
</radialGradient>
<radialGradient id="paint7_radial_27_11" cx="0" cy="0" r="1" gradientUnits="userSpaceOnUse" gradientTransform="translate(59.528 39.5099) rotate(175.017) scale(5.25802 5.2077)">
<stop stop-color="#8C2A1C"/>
<stop offset="1" stop-color="#270E11"/>
</radialGradient>
<radialGradient id="paint8_radial_27_11" cx="0" cy="0" r="1" gradientUnits="userSpaceOnUse" gradientTransform="translate(81.967 27.1258) rotate(175.017) scale(10.7187 10.6161)">
<stop stop-color="#FAA71C"/>
<stop offset="1" stop-color="#EA5124"/>
</radialGradient>
<radialGradient id="paint9_radial_27_11" cx="0" cy="0" r="1" gradientUnits="userSpaceOnUse" gradientTransform="translate(57.7777 33.9462) rotate(175.017) scale(27.0875 26.8283)">
<stop stop-color="#FAA71C"/>
<stop offset="1" stop-color="#EA5124"/>
</radialGradient>
<radialGradient id="paint10_radial_27_11" cx="0" cy="0" r="1" gradientUnits="userSpaceOnUse" gradientTransform="translate(10.8924 29.8848) rotate(175.017) scale(12.2237 12.1067)">
<stop stop-color="#FAA71C"/>
<stop offset="1" stop-color="#EA5124"/>
</radialGradient>
<linearGradient id="paint11_linear_27_11" x1="49.0808" y1="16.2355" x2="47.9911" y2="7.49377" gradientUnits="userSpaceOnUse">
<stop stop-color="white" stop-opacity="0"/>
<stop offset="1" stop-color="#CE3A27"/>
</linearGradient>
<radialGradient id="paint12_radial_27_11" cx="0" cy="0" r="1" gradientUnits="userSpaceOnUse" gradientTransform="translate(72.1401 31.7125) rotate(175.017) scale(7.07765 7.00992)">
<stop stop-color="#8C2A1C"/>
<stop offset="1" stop-color="#270E11"/>
</radialGradient>
<radialGradient id="paint13_radial_27_11" cx="0" cy="0" r="1" gradientUnits="userSpaceOnUse" gradientTransform="translate(47.3873 35.0368) rotate(175.017) scale(10.5692 10.4681)">
<stop stop-color="#8C2A1C"/>
<stop offset="1" stop-color="#270E11"/>
</radialGradient>
<radialGradient id="paint14_radial_27_11" cx="0" cy="0" r="1" gradientUnits="userSpaceOnUse" gradientTransform="translate(19.9389 29.4621) rotate(175.017) scale(4.61993 4.57572)">
<stop stop-color="#8C2A1C"/>
<stop offset="1" stop-color="#270E11"/>
</radialGradient>
<radialGradient id="paint15_radial_27_11" cx="0" cy="0" r="1" gradientUnits="userSpaceOnUse" gradientTransform="translate(9.85465 24.2438) rotate(175.017) scale(8.95645 8.87073)">
<stop stop-color="#8C2A1C"/>
<stop offset="1" stop-color="#270E11"/>
</radialGradient>
<linearGradient id="paint16_linear_27_11" x1="18.2383" y1="18.6206" x2="20.5518" y2="23.996" gradientUnits="userSpaceOnUse">
<stop stop-color="#FFF3D3"/>
<stop offset="1" stop-color="white"/>
</linearGradient>
<linearGradient id="paint17_linear_27_11" x1="70.8243" y1="8.46083" x2="74.6503" y2="24.7599" gradientUnits="userSpaceOnUse">
<stop stop-color="#FFF3D3"/>
<stop offset="1" stop-color="white"/>
</linearGradient>
<linearGradient id="paint18_linear_27_11" x1="42.7774" y1="10.9328" x2="46.9958" y2="21.8373" gradientUnits="userSpaceOnUse">
<stop stop-color="#FFF3D3"/>
<stop offset="1" stop-color="white"/>
</linearGradient>
<radialGradient id="paint19_radial_27_11" cx="0" cy="0" r="1" gradientUnits="userSpaceOnUse" gradientTransform="translate(60.2917 25.101) rotate(175.017) scale(8.62424 8.5417)">
<stop stop-color="#FAA71C"/>
<stop offset="1" stop-color="#EA5124"/>
</radialGradient>
<radialGradient id="paint20_radial_27_11" cx="0" cy="0" r="1" gradientUnits="userSpaceOnUse" gradientTransform="translate(58.2624 21.2515) rotate(175.017) scale(7.45261 7.38129)">
<stop stop-color="#8C2A1C"/>
<stop offset="1" stop-color="#270E11"/>
</radialGradient>
<radialGradient id="paint21_radial_27_11" cx="0" cy="0" r="1" gradientUnits="userSpaceOnUse" gradientTransform="translate(79.611 20.8617) rotate(-4.20181) scale(3.52556 3.49167)">
<stop stop-color="#8C2A1C"/>
<stop offset="1" stop-color="#270E11"/>
</radialGradient>
<radialGradient id="paint22_radial_27_11" cx="0" cy="0" r="1" gradientUnits="userSpaceOnUse" gradientTransform="translate(77.728 19.7708) rotate(-4.2018) scale(3.7465 3.71048)">
<stop stop-color="#DAEFEB"/>
<stop offset="1" stop-color="white"/>
</radialGradient>
<linearGradient id="paint23_linear_27_11" x1="77.2077" y1="18.5759" x2="80.245" y2="18.3483" gradientUnits="userSpaceOnUse">
<stop stop-color="#742319"/>
<stop offset="1" stop-color="#BF8E50"/>
</linearGradient>
<linearGradient id="paint24_linear_27_11" x1="82.888" y1="25.3194" x2="85.643" y2="22.6392" gradientUnits="userSpaceOnUse">
<stop stop-color="#363639"/>
<stop offset="1" stop-color="#CE3A27"/>
</linearGradient>
<radialGradient id="paint25_radial_27_11" cx="0" cy="0" r="1" gradientUnits="userSpaceOnUse" gradientTransform="translate(75.138 22.4092) rotate(175.017) scale(4.17931 4.13932)">
<stop stop-color="#F6A4BD"/>
<stop offset="1" stop-color="white" stop-opacity="0"/>
</radialGradient>
<linearGradient id="paint26_linear_27_11" x1="64.2077" y1="32.4773" x2="60.6463" y2="22.9305" gradientUnits="userSpaceOnUse">
<stop stop-color="#F2EA30"/>
<stop offset="1" stop-color="#010101"/>
</linearGradient>
<clipPath id="clip0_27_11">
<rect width="87" height="45" fill="white"/>
</clipPath>
</defs>
</svg>
